PathFileType	4	(X/Y/Z)	19_1_16_p1_0-239_filt_butterworth.trc
DataRate	CameraRate	NumFrames	NumMarkers	Units	OrigDataRate	OrigDataStartFrame	OrigNumFrames
55.0	55.0	7	27	m	55.0	59	239
Frame#	Time	RHip			RKnee			RAnkle			RBigToe			RSmallToe			RHeel			LHip			LKnee			LAnkle			LBigToe			LSmallToe			LHeel			Neck			Head			Nose			RShoulder			RElbow			RWrist			RThumb			RIndex			RPinky			LShoulder			LElbow			LWrist			LThumb			LIndex			LPinky			
		X1	Y1	Z1	X2	Y2	Z2	X3	Y3	Z3	X4	Y4	Z4	X5	Y5	Z5	X6	Y6	Z6	X7	Y7	Z7	X8	Y8	Z8	X9	Y9	Z9	X10	Y10	Z10	X11	Y11	Z11	X12	Y12	Z12	X13	Y13	Z13	X14	Y14	Z14	X15	Y15	Z15	X16	Y16	Z16	X17	Y17	Z17	X18	Y18	Z18	X19	Y19	Z19	X20	Y20	Z20	X21	Y21	Z21	X22	Y22	Z22	X23	Y23	Z23	X24	Y24	Z24	X25	Y25	Z25	X26	Y26	Z26	X27	Y27	Z27	
59	1.0727272727272728	0.2757800402449019	0.5578632260785673	0.9181446310692096	0.27031367003455786	0.5290498770584505	1.3392049791165337	0.25811583600729127	0.5063384560410453	1.7283365776171697	0.2616397839328255	0.3559602654907716	1.716921690191495	0.3133614327251558	0.41414204858333187	1.7470915738373132	0.22860576543203587	0.5943423618875023	1.8219616601121238	0.06598634578446738	0.5164205888414104	0.9166809025491663	0.07087119769418888	0.5326874199635466	1.3362524118334462	0.07235144598028906	0.5382361277745147	1.7606261298917874	0.10342254428961506	0.34692287221457063	1.716099736420345	0.05012991754519722	0.40656505771542994	1.7513384846524012	0.08684031361719516	0.5783031054946273	1.802459579698941	0.1536282389052272	0.5341039705846561	0.35626702706881713	0.16257054542004254	0.45917837242910475	0.11601626322630702	0.16810341660465083	0.40154663844984273	0.23336220064898225	0.32048844618198197	0.5120970223383867	0.4390108184496405	0.382453165378525	0.572814270292399	0.7111893683948085	0.3796656229519817	0.5008160194779787	0.9610529873028608	0.352574206323517	0.45903178441428644	1.052705124678232	0.3577749991233571	0.4589761608224448	1.0766435835338217	0.3742967561377114	0.49287032765861116	1.079519492822879	0.015881426293763042	0.49162384972734	0.4491083853990215	-0.04305692755730219	0.5227542624025752	0.7265360133383291	-0.05202446144312671	0.4557900985365066	0.9533258528544963	-0.03001883436239497	0.47870954137144117	1.0711438161932278	-0.05239006829984055	0.43516715920572213	1.0812481541698151	-0.08630759734657892	0.41712068346916875	1.0592068646431776
60	1.0909090909090908	0.2758546024154649	0.558300192661611	0.9180953792829629	0.270032920069551	0.5213951794567099	1.3374577388035993	0.25804510051452706	0.5065022534320721	1.7284774441512518	0.26221150676264465	0.35644277329998597	1.7174244893109047	0.31345604431836444	0.41449960336068725	1.7466678498882058	0.22937860359511306	0.5941459385128006	1.8217649284275073	0.06601693789597106	0.5168972645617936	0.9185013380933785	0.07065001422449228	0.5322950582705788	1.3365032896468194	0.07234254077555573	0.5380277020291809	1.76006460330372	0.10467373014200093	0.34560190458729523	1.7152073104915402	0.05057858263373888	0.40384567497648377	1.750816233621026	0.08924927968728143	0.5726107592737679	1.7981605039426343	0.15378020705019452	0.5339169385229133	0.3572875305055007	0.16249520948355137	0.4590590113548321	0.11699829473591722	0.1681404547221675	0.4014458680796253	0.23338273970084578	0.3205200345297564	0.5122482687879136	0.43805557047134336	0.38268734342991406	0.5729542693281673	0.7097736063560262	0.38208459241749576	0.505902409125877	0.9618859262308074	0.35327803175112543	0.46074677923450696	1.0528772220552378	0.3588189949121561	0.4604385910281666	1.073652487613984	0.3780593275365322	0.4995274001009413	1.0798691054450533	0.015933440034488846	0.4916592870288497	0.4493196587709341	-0.04346076577297768	0.5228403323909973	0.7261818633573629	-0.05236324270340345	0.45828870549494827	0.9538655491979939	-0.03127440678714885	0.48055751645299283	1.073983271692963	-0.052329751806036766	0.4346769604825139	1.0812669662210785	-0.08812207101033344	0.4206807213493602	1.0604102665625774
61	1.1090909090909091	0.2758936284968184	0.558456954134947	0.9180892456227416	0.2700387108750325	0.5153409655238558	1.3370400741956823	0.2579168558930333	0.5068002234386603	1.7286406177937754	0.26331750631339934	0.3566756928022317	1.7181680082630526	0.31342784091332093	0.41442375639052265	1.7466917966595872	0.23034835939323062	0.5924218332806228	1.8206102937933515	0.06617210780496413	0.5185131433200763	0.9212089269212216	0.0707679274676153	0.5320872680500659	1.337910524003684	0.07235228948183295	0.5377798132422492	1.7599989478876323	0.10584831463987068	0.3431991388332643	1.7124284682826403	0.05096585982382881	0.398632649317651	1.7479017139579223	0.09093480135260258	0.5681987767164374	1.794349641233068	0.15389580750451204	0.5337892577042895	0.35864338034769444	0.1624759708243987	0.45892389231162456	0.11770799881735983	0.16816695545596094	0.4013902173480849	0.23340199826672864	0.3205355468187692	0.5123852133641177	0.43675330211637897	0.38276398349258123	0.5733808550832218	0.7089186150736642	0.383999705472163	0.5107421284541613	0.9625219838931391	0.35342825875261497	0.46120793683667055	1.0539704347539758	0.35969454129017897	0.46130802184643876	1.0721821705302355	0.38281782095563954	0.5057242292535771	1.080867075933637	0.01595832491122829	0.49163998807165316	0.4494018430170091	-0.043367783502256396	0.5232029747518478	0.7252684435468357	-0.05407708071669766	0.4616324541523781	0.9551775032391142	-0.03308397126232973	0.48317151850275564	1.0769142006621344	-0.0532718055080225	0.4355403619334301	1.08038371819609	-0.09042027259208077	0.42549550861799557	1.0615297062330917
62	1.1272727272727272	0.27590146221496453	0.5581512663229306	0.9180908366297612	0.27017125667334496	0.5130924807657461	1.3371875912910847	0.2578920797408879	0.5068666768666032	1.7286029358148793	0.26397711912605865	0.3564700422963858	1.718421815062303	0.31334682103557027	0.41324944473309944	1.747154125910109	0.23071020503637807	0.5895160871572296	1.8190742024591933	0.06600038955916976	0.5220125645802712	0.9229180776654851	0.07108997653548027	0.5319841832446588	1.3404437533695788	0.07227742635804954	0.5374626508166012	1.7598429900805748	0.10679661818191369	0.3406295289493206	1.7084710042320315	0.050920267764445165	0.39466002966223335	1.744197708937746	0.09145924053467355	0.5663421599547087	1.79266441105022	0.1539381015092327	0.533697817521228	0.3596147959216479	0.16245902288471503	0.45887519110860103	0.11794092993492014	0.168166061069908	0.4013857392295115	0.2334076453614864	0.32054056946307147	0.5124573415969448	0.43584970714709304	0.3827830129957135	0.5739434798222839	0.7088532797248709	0.385059140930081	0.5139126289910476	0.9628273446837221	0.3534740811215786	0.4610422001295301	1.0557338498861735	0.36002561549684725	0.461475478436255	1.0723509177534853	0.38640440223888967	0.5088886057415749	1.0817039228846672	0.01596908110110485	0.4916164925187323	0.4494294382306454	-0.04309822893567694	0.5235409210361015	0.7240469908743473	-0.05646694832479579	0.4659754255259926	0.9569758901678627	-0.03466994518787893	0.4859642754071682	1.0787867846295793	-0.055286276609316495	0.4401747740872959	1.0811410427693868	-0.09202527098126423	0.4291510563982579	1.0618575673721862
63	1.1454545454545455	0.27591414016010374	0.5577794391257983	0.9180793650516011	0.27023988581920927	0.5133199571060991	1.3373824460817971	0.2579626698501762	0.5067294334315444	1.728788728470785	0.26416594833144125	0.3558941064559052	1.7181921244258151	0.313244889812185	0.4117688306281453	1.7473781065785738	0.23016853351178035	0.5881561995435984	1.818996759601653	0.06533710131542317	0.5252734067414198	0.9224646604864918	0.0714238874198882	0.5319521040992626	1.3430750996267777	0.07215744125833538	0.5374991321002132	1.7597119879308023	0.10709739037146097	0.3383142927464864	1.705108727366057	0.05087322036057864	0.39347656091120664	1.7417536566232488	0.0913980200734216	0.5658075030416515	1.7923409857311718	0.15392788518714287	0.5336230447555518	0.3599198856873831	0.16242934795725658	0.45888660923141034	0.11790920068735393	0.1681455113860771	0.40139487978729926	0.23340513731459972	0.3205506808274214	0.5124936041410978	0.43567420554622327	0.3828107996959069	0.5742929906980068	0.7088075596952705	0.38530343339675593	0.5148798705105307	0.9629003906909288	0.3535743629641389	0.460809045601657	1.0571440131671825	0.35993847106359605	0.46112762428577553	1.0731737771248662	0.38784374866154375	0.5091536551235929	1.0819455357767973	0.015957541783913207	0.4915223933442106	0.44909889417890075	-0.04286616106254108	0.5237168038282805	0.7232003946954507	-0.058190450394437106	0.46913230944992035	0.9582808064236895	-0.03529609514910231	0.4873136260020514	1.0794781458847542	-0.05753790532406622	0.44819162628407266	1.084224602201271	-0.09251402290629938	0.4304797431556352	1.0616388329317725
64	1.1636363636363636	0.2759438132885418	0.5576456622982537	0.9180667273734019	0.2702506278173055	0.5139207034758517	1.3374286827512383	0.258044040656194	0.5063791847491708	1.7297906795865094	0.2645277996460196	0.3574674109177147	1.7192016363045763	0.31316144130040924	0.41229250559967034	1.7468136798885312	0.22921646488406577	0.5899965599806802	1.820731525440141	0.06446323630496217	0.5248737466041571	0.9210284141211342	0.07155841746311777	0.5318155860891336	1.3440580349340405	0.0723262721292464	0.538821367613113	1.7606076513788012	0.10653439440868481	0.33661310774102965	1.7033532785339065	0.051425725335614	0.3950534665019298	1.7418816318661907	0.09135631040253755	0.5655203815158982	1.7923197362564331	0.15390074380647426	0.5335944217290403	0.3598533638790124	0.1624002174803148	0.45891261550330276	0.11784402835600348	0.16811783895352772	0.40139296642437483	0.23340184069036604	0.3205621746613417	0.5125311409497905	0.4358566372279716	0.38276759146360906	0.5742626093252824	0.7079288985869951	0.38518221520688734	0.5147233629521212	0.9629211480270778	0.35364801733097495	0.46065996776389795	1.057552760043302	0.35976722893020974	0.4605388850870106	1.0740901404911547	0.38784666656561556	0.5084564137171468	1.0818253229285655	0.01590764642597947	0.4912987050288039	0.4480607093771135	-0.0428402552159256	0.5237849564994567	0.7229762083218721	-0.058747930807061824	0.46996859949862296	0.9586322443151546	-0.035268385796827506	0.48742978649880553	1.0799909237133312	-0.058897476661366396	0.45494717098696574	1.0870968419039724	-0.09243215556911782	0.4304055633707604	1.0612904811849135
65	1.181818181818182	0.27595483180192476	0.5576546343112203	0.9180480058515585	0.2702436922474386	0.5141225157200591	1.3373623208954633	0.257906096564944	0.5060854459278074	1.731256861820245	0.26481468819134735	0.36221596120477884	1.7219915621330881	0.31319338558777804	0.41517381012618193	1.746115778335178	0.22846023445120534	0.59283708801187	1.822273739047971	0.0641204482438082	0.5210403911077132	0.920261920835901	0.07142749162104807	0.5313609176086946	1.3427660534497374	0.07333191458914791	0.5416754599551752	1.7636689496814029	0.10508510140399104	0.33787946255000967	1.7041685709557242	0.052066326177686494	0.39916373506594965	1.744401231183939	0.09134520711777236	0.5657163886816172	1.7925434818164159	0.1538786886994905	0.5336162330076539	0.35974291191860175	0.1623827497909846	0.4589309137626405	0.11781582848911307	0.1680941058175558	0.40138420279246073	0.2333988885955847	0.32053620269754857	0.5125711657688565	0.4356637143085583	0.38262383593011656	0.5740711771779996	0.7063993966461954	0.38507610100004985	0.5145060756140265	0.9629570408768803	0.3535291862047296	0.46062424385848005	1.0566310882416834	0.3597386441539989	0.46026028013711295	1.07479052177269	0.38758726177123665	0.5084008086724758	1.0816701411588154	0.015837079074069442	0.49102248463674064	0.4465985957814088	-0.043219396568797884	0.5239896696073436	0.7230786241985545	-0.05869230252371071	0.4697677292967789	0.9585434255527884	-0.035093536253588235	0.487167355881676	1.080798197166432	-0.05879830589055664	0.4558643834759778	1.0866763310551728	-0.0923403025261023	0.4301788085669369	1.060421432367181
